<?xml version="1.0" encoding="utf-8"?>
<!-- Generator: Adobe Illustrator 16.0.0, SVG Export Plug-In . SVG Version: 6.00 Build 0)  -->
<!DOCTYPE svg PUBLIC "-//W3C//DTD SVG 1.1//EN" "http://www.w3.org/Graphics/SVG/1.1/DTD/svg11.dtd">
<svg version="1.1" xmlns="http://www.w3.org/2000/svg" xmlns:xlink="http://www.w3.org/1999/xlink" x="0px" y="0px" width="900px"
	 height="900px" viewBox="0 0 900 900" enable-background="new 0 0 900 900" xml:space="preserve">
<g id="Layer_2">
	<rect x="25" y="25" fill="#EFEFEF" width="850" height="850"/>
</g>
<g id="Layer_1">
	<g>
		<g>
			
				<rect x="817.957" y="494.182" fill="#FFFFFF" stroke="#636363" stroke-width="0.5" stroke-miterlimit="10" width="41.949" height="96.29"/>
			
				<line fill="none" stroke="#636363" stroke-width="0.5" stroke-miterlimit="10" x1="826.457" y1="590.472" x2="826.457" y2="494.182"/>
			<polygon fill="#FFFFFF" stroke="#636363" stroke-width="0.5" stroke-miterlimit="10" points="859.906,494.182 859.906,488.432 
				826.457,488.432 821.957,494.182 			"/>
			<polygon fill="#FFFFFF" stroke="#636363" stroke-width="0.5" stroke-miterlimit="10" points="859.906,590.472 859.906,596.222 
				826.457,596.222 821.957,590.472 			"/>
			<g>
				
					<line fill="none" stroke="#636363" stroke-width="0.5" stroke-miterlimit="10" x1="817.957" y1="558.376" x2="859.906" y2="558.376"/>
				
					<line fill="none" stroke="#636363" stroke-width="0.5" stroke-miterlimit="10" x1="817.957" y1="590.472" x2="859.906" y2="590.472"/>
				
					<line fill="none" stroke="#636363" stroke-width="0.5" stroke-miterlimit="10" x1="817.957" y1="526.278" x2="859.906" y2="526.278"/>
				
					<line fill="none" stroke="#636363" stroke-width="0.5" stroke-miterlimit="10" x1="817.957" y1="494.182" x2="859.906" y2="494.182"/>
			</g>
		</g>
		
			<rect x="859.906" y="502.161" fill="#FFFFFF" stroke="#636363" stroke-width="0.5" stroke-miterlimit="10" width="9.219" height="80.332"/>
	</g>
	<g>
		<g>
			
				<rect x="41.438" y="494.182" fill="#FFFFFF" stroke="#636363" stroke-width="0.5" stroke-miterlimit="10" width="41.948" height="96.29"/>
			
				<line fill="none" stroke="#636363" stroke-width="0.5" stroke-miterlimit="10" x1="74.886" y1="494.182" x2="74.886" y2="590.472"/>
			<polygon fill="#FFFFFF" stroke="#636363" stroke-width="0.5" stroke-miterlimit="10" points="41.438,590.472 41.438,596.222 
				74.886,596.222 79.386,590.472 			"/>
			<polygon fill="#FFFFFF" stroke="#636363" stroke-width="0.5" stroke-miterlimit="10" points="41.438,494.182 41.438,488.432 
				74.886,488.432 79.386,494.182 			"/>
			<g>
				
					<line fill="none" stroke="#636363" stroke-width="0.5" stroke-miterlimit="10" x1="83.386" y1="526.277" x2="41.438" y2="526.277"/>
				
					<line fill="none" stroke="#636363" stroke-width="0.5" stroke-miterlimit="10" x1="83.386" y1="494.182" x2="41.438" y2="494.182"/>
				
					<line fill="none" stroke="#636363" stroke-width="0.5" stroke-miterlimit="10" x1="83.386" y1="558.375" x2="41.438" y2="558.375"/>
				
					<line fill="none" stroke="#636363" stroke-width="0.5" stroke-miterlimit="10" x1="83.386" y1="590.472" x2="41.438" y2="590.472"/>
			</g>
		</g>
		
			<rect x="32.219" y="502.16" fill="#FFFFFF" stroke="#636363" stroke-width="0.5" stroke-miterlimit="10" width="9.219" height="80.332"/>
	</g>
	<g>
		<g>
			
				<rect x="459.219" y="189.355" fill="#FFFFFF" stroke="#636363" stroke-width="0.5" stroke-miterlimit="10" width="41.948" height="96.29"/>
			
				<line fill="none" stroke="#636363" stroke-width="0.5" stroke-miterlimit="10" x1="492.667" y1="189.355" x2="492.667" y2="285.645"/>
			<polygon fill="#FFFFFF" stroke="#636363" stroke-width="0.5" stroke-miterlimit="10" points="459.219,285.645 459.219,291.395 
				492.667,291.395 497.167,285.645 			"/>
			<polygon fill="#FFFFFF" stroke="#636363" stroke-width="0.5" stroke-miterlimit="10" points="459.219,189.355 459.219,183.605 
				492.667,183.605 497.167,189.355 			"/>
			<g>
				
					<line fill="none" stroke="#636363" stroke-width="0.5" stroke-miterlimit="10" x1="501.167" y1="221.452" x2="459.219" y2="221.452"/>
				
					<line fill="none" stroke="#636363" stroke-width="0.5" stroke-miterlimit="10" x1="501.167" y1="189.355" x2="459.219" y2="189.355"/>
				
					<line fill="none" stroke="#636363" stroke-width="0.5" stroke-miterlimit="10" x1="501.167" y1="253.549" x2="459.219" y2="253.549"/>
				
					<line fill="none" stroke="#636363" stroke-width="0.5" stroke-miterlimit="10" x1="501.167" y1="285.645" x2="459.219" y2="285.645"/>
			</g>
		</g>
		
			<rect x="450" y="197.333" fill="#FFFFFF" stroke="#636363" stroke-width="0.5" stroke-miterlimit="10" width="9.219" height="80.333"/>
	</g>
	<g>
		<g>
			
				<rect x="192.677" y="398.834" fill="#FFFFFF" stroke="#636363" stroke-width="0.5" stroke-miterlimit="10" width="96.291" height="41.948"/>
			
				<line fill="none" stroke="#636363" stroke-width="0.5" stroke-miterlimit="10" x1="192.677" y1="407.334" x2="288.967" y2="407.334"/>
			<polygon fill="#FFFFFF" stroke="#636363" stroke-width="0.5" stroke-miterlimit="10" points="288.967,440.782 294.717,440.782 
				294.717,407.334 288.967,402.834 			"/>
			<polygon fill="#FFFFFF" stroke="#636363" stroke-width="0.5" stroke-miterlimit="10" points="192.677,440.782 186.927,440.782 
				186.927,407.334 192.677,402.834 			"/>
			<g>
				
					<line fill="none" stroke="#636363" stroke-width="0.5" stroke-miterlimit="10" x1="224.773" y1="398.834" x2="224.773" y2="440.782"/>
				
					<line fill="none" stroke="#636363" stroke-width="0.5" stroke-miterlimit="10" x1="192.677" y1="398.834" x2="192.677" y2="440.782"/>
				
					<line fill="none" stroke="#636363" stroke-width="0.5" stroke-miterlimit="10" x1="256.871" y1="398.834" x2="256.871" y2="440.782"/>
				
					<line fill="none" stroke="#636363" stroke-width="0.5" stroke-miterlimit="10" x1="288.967" y1="398.834" x2="288.967" y2="440.782"/>
			</g>
		</g>
		
			<rect x="200.655" y="440.782" fill="#FFFFFF" stroke="#636363" stroke-width="0.5" stroke-miterlimit="10" width="80.333" height="9.219"/>
	</g>
	<g>
		<g>
			
				<rect x="66.725" y="398.834" fill="#FFFFFF" stroke="#636363" stroke-width="0.5" stroke-miterlimit="10" width="96.291" height="41.948"/>
			
				<line fill="none" stroke="#636363" stroke-width="0.5" stroke-miterlimit="10" x1="66.725" y1="407.334" x2="163.016" y2="407.334"/>
			<polygon fill="#FFFFFF" stroke="#636363" stroke-width="0.5" stroke-miterlimit="10" points="163.016,440.782 168.766,440.782 
				168.766,407.334 163.016,402.834 			"/>
			<polygon fill="#FFFFFF" stroke="#636363" stroke-width="0.5" stroke-miterlimit="10" points="66.725,440.782 60.975,440.782 
				60.975,407.334 66.725,402.834 			"/>
			<g>
				
					<line fill="none" stroke="#636363" stroke-width="0.5" stroke-miterlimit="10" x1="98.822" y1="398.834" x2="98.822" y2="440.782"/>
				
					<line fill="none" stroke="#636363" stroke-width="0.5" stroke-miterlimit="10" x1="66.725" y1="398.834" x2="66.725" y2="440.782"/>
				
					<line fill="none" stroke="#636363" stroke-width="0.5" stroke-miterlimit="10" x1="130.919" y1="398.834" x2="130.919" y2="440.782"/>
				
					<line fill="none" stroke="#636363" stroke-width="0.5" stroke-miterlimit="10" x1="163.016" y1="398.834" x2="163.016" y2="440.782"/>
			</g>
		</g>
		
			<rect x="74.704" y="440.782" fill="#FFFFFF" stroke="#636363" stroke-width="0.5" stroke-miterlimit="10" width="80.333" height="9.219"/>
	</g>
	<polyline fill="none" stroke="#636363" stroke-width="20" stroke-miterlimit="10" points="120,25 25,25 25,120 	"/>
	<polyline fill="none" stroke="#636363" stroke-width="20" stroke-miterlimit="10" points="780.001,875 875,875 875,780 	"/>
	<polyline fill="none" stroke="#636363" stroke-width="20" stroke-miterlimit="10" points="25,780.001 25,875 120,875 	"/>
	<polyline fill="none" stroke="#636363" stroke-width="20" stroke-miterlimit="10" points="875,119.999 875,25 780,25 	"/>
	<line fill="none" stroke="#636363" stroke-width="20" stroke-miterlimit="10" x1="25" y1="200" x2="25" y2="700"/>
	<line fill="none" stroke="#636363" stroke-width="20" stroke-miterlimit="10" x1="875" y1="200" x2="875" y2="700"/>
	<line fill="none" stroke="#636363" stroke-width="20" stroke-miterlimit="10" x1="700" y1="25" x2="200" y2="25"/>
	<line fill="none" stroke="#636363" stroke-width="20" stroke-miterlimit="10" x1="700" y1="875" x2="200" y2="875"/>
	<line fill="none" stroke="#636363" stroke-width="5" stroke-miterlimit="10" x1="569" y1="450" x2="875" y2="450"/>
	<g>
		<line fill="none" stroke="#636363" stroke-width="5" stroke-miterlimit="10" x1="450" y1="25" x2="450" y2="450"/>
		<line fill="none" stroke="#636363" stroke-width="5" stroke-miterlimit="10" x1="380" y1="450" x2="520" y2="450"/>
	</g>
	<line fill="none" stroke="#636363" stroke-width="5" stroke-miterlimit="10" x1="25" y1="450" x2="331" y2="450"/>
	<line fill="none" stroke="#636363" stroke-width="2" stroke-miterlimit="10" x1="333.5" y1="450" x2="377.25" y2="406.25"/>
	<circle fill="#FFFFFF" stroke="#636363" stroke-width="5" stroke-miterlimit="10" cx="333.5" cy="450" r="6.5"/>
	<line fill="none" stroke="#636363" stroke-width="2" stroke-miterlimit="10" x1="568.999" y1="450" x2="525.249" y2="406.25"/>
	<circle fill="#FFFFFF" stroke="#636363" stroke-width="5" stroke-miterlimit="10" cx="569" cy="450" r="6.5"/>
	<g>
		<line fill="none" stroke="#636363" stroke-width="5" stroke-miterlimit="10" x1="25" y1="178" x2="25" y2="201.334"/>
		<g>
			<line fill="none" stroke="#636363" stroke-width="2" stroke-miterlimit="10" x1="25" y1="178" x2="68.75" y2="134.25"/>
			<circle fill="#FFFFFF" stroke="#636363" stroke-width="5" stroke-miterlimit="10" cx="25" cy="178" r="6.5"/>
		</g>
		<line fill="none" stroke="#636363" stroke-width="5" stroke-miterlimit="10" x1="25" y1="110.999" x2="25" y2="134.333"/>
	</g>
	<g>
		<line fill="none" stroke="#636363" stroke-width="5" stroke-miterlimit="10" x1="137.624" y1="25.092" x2="114.29" y2="25.092"/>
		<g>
			
				<line fill="none" stroke="#636363" stroke-width="2" stroke-miterlimit="10" x1="137.624" y1="25.092" x2="181.374" y2="68.842"/>
			<circle fill="#FFFFFF" stroke="#636363" stroke-width="5" stroke-miterlimit="10" cx="137.624" cy="25.092" r="6.5"/>
		</g>
		<line fill="none" stroke="#636363" stroke-width="5" stroke-miterlimit="10" x1="204.625" y1="25.092" x2="181.291" y2="25.092"/>
	</g>
	<g>
		<line fill="none" stroke="#636363" stroke-width="5" stroke-miterlimit="10" x1="718.29" y1="25.092" x2="694.956" y2="25.092"/>
		<g>
			<line fill="none" stroke="#636363" stroke-width="2" stroke-miterlimit="10" x1="718.29" y1="25.092" x2="762.04" y2="68.842"/>
			<circle fill="#FFFFFF" stroke="#636363" stroke-width="5" stroke-miterlimit="10" cx="718.29" cy="25.092" r="6.5"/>
		</g>
		<line fill="none" stroke="#636363" stroke-width="5" stroke-miterlimit="10" x1="785.291" y1="25.092" x2="761.957" y2="25.092"/>
	</g>
	<g>
		
			<line fill="none" stroke="#636363" stroke-width="5" stroke-miterlimit="10" x1="761.957" y1="874.914" x2="785.291" y2="874.914"/>
		<g>
			
				<line fill="none" stroke="#636363" stroke-width="2" stroke-miterlimit="10" x1="761.957" y1="874.914" x2="718.207" y2="831.164"/>
			<circle fill="#FFFFFF" stroke="#636363" stroke-width="5" stroke-miterlimit="10" cx="761.957" cy="874.914" r="6.5"/>
		</g>
		
			<line fill="none" stroke="#636363" stroke-width="5" stroke-miterlimit="10" x1="694.955" y1="874.914" x2="718.289" y2="874.914"/>
	</g>
	<g>
		
			<line fill="none" stroke="#636363" stroke-width="5" stroke-miterlimit="10" x1="181.29" y1="874.914" x2="204.624" y2="874.914"/>
		<g>
			
				<line fill="none" stroke="#636363" stroke-width="2" stroke-miterlimit="10" x1="181.29" y1="874.914" x2="137.54" y2="831.164"/>
			<circle fill="#FFFFFF" stroke="#636363" stroke-width="5" stroke-miterlimit="10" cx="181.29" cy="874.914" r="6.5"/>
		</g>
		
			<line fill="none" stroke="#636363" stroke-width="5" stroke-miterlimit="10" x1="114.289" y1="874.914" x2="137.623" y2="874.914"/>
	</g>
	<g>
		<line fill="none" stroke="#636363" stroke-width="5" stroke-miterlimit="10" x1="25" y1="758.001" x2="25" y2="781.335"/>
		<g>
			<line fill="none" stroke="#636363" stroke-width="2" stroke-miterlimit="10" x1="25" y1="758.001" x2="68.75" y2="714.251"/>
			<circle fill="#FFFFFF" stroke="#636363" stroke-width="5" stroke-miterlimit="10" cx="25" cy="758.001" r="6.5"/>
		</g>
		<line fill="none" stroke="#636363" stroke-width="5" stroke-miterlimit="10" x1="25" y1="691" x2="25" y2="714.334"/>
	</g>
	<g>
		<line fill="none" stroke="#636363" stroke-width="5" stroke-miterlimit="10" x1="874.584" y1="714.334" x2="874.584" y2="691"/>
		<g>
			
				<line fill="none" stroke="#636363" stroke-width="2" stroke-miterlimit="10" x1="874.584" y1="714.334" x2="830.834" y2="758.084"/>
			<circle fill="#FFFFFF" stroke="#636363" stroke-width="5" stroke-miterlimit="10" cx="874.584" cy="714.334" r="6.5"/>
		</g>
		
			<line fill="none" stroke="#636363" stroke-width="5" stroke-miterlimit="10" x1="874.584" y1="781.335" x2="874.584" y2="758.001"/>
	</g>
	<g>
		
			<line fill="none" stroke="#636363" stroke-width="5" stroke-miterlimit="10" x1="874.584" y1="134.333" x2="874.584" y2="110.999"/>
		<g>
			
				<line fill="none" stroke="#636363" stroke-width="2" stroke-miterlimit="10" x1="874.584" y1="134.333" x2="830.834" y2="178.083"/>
			<circle fill="#FFFFFF" stroke="#636363" stroke-width="5" stroke-miterlimit="10" cx="874.584" cy="134.333" r="6.5"/>
		</g>
		<line fill="none" stroke="#636363" stroke-width="5" stroke-miterlimit="10" x1="874.584" y1="201.334" x2="874.584" y2="178"/>
	</g>
	<g>
		
			<rect x="364" y="50.906" fill="#FFFFFF" stroke="#636363" stroke-width="0.5" stroke-miterlimit="10" width="64" height="127.083"/>
		<line fill="none" stroke="#636363" stroke-width="0.5" stroke-miterlimit="10" x1="364" y1="50.906" x2="428" y2="177.989"/>
		<line fill="none" stroke="#636363" stroke-width="0.5" stroke-miterlimit="10" x1="364" y1="177.989" x2="428" y2="50.906"/>
		<g>
			<g>
				<circle fill="#FFFFFF" stroke="#636363" stroke-width="0.5" stroke-miterlimit="10" cx="346.788" cy="75.281" r="8.667"/>
				
					<line fill="none" stroke="#636363" stroke-width="0.5" stroke-miterlimit="10" x1="352.917" y1="81.41" x2="340.849" y2="69.342"/>
				
					<line fill="none" stroke="#636363" stroke-width="0.5" stroke-miterlimit="10" x1="340.66" y1="81.41" x2="352.917" y2="69.153"/>
			</g>
			<g>
				<circle fill="#FFFFFF" stroke="#636363" stroke-width="0.5" stroke-miterlimit="10" cx="346.788" cy="153.615" r="8.667"/>
				
					<line fill="none" stroke="#636363" stroke-width="0.5" stroke-miterlimit="10" x1="352.917" y1="159.743" x2="340.849" y2="147.675"/>
				
					<line fill="none" stroke="#636363" stroke-width="0.5" stroke-miterlimit="10" x1="340.66" y1="159.743" x2="352.917" y2="147.487"/>
			</g>
		</g>
	</g>
	<g>
		
			<rect x="716.459" y="364.125" fill="#FFFFFF" stroke="#636363" stroke-width="0.5" stroke-miterlimit="10" width="127.082" height="64"/>
		
			<line fill="none" stroke="#636363" stroke-width="0.5" stroke-miterlimit="10" x1="843.541" y1="364.125" x2="716.459" y2="428.125"/>
		
			<line fill="none" stroke="#636363" stroke-width="0.5" stroke-miterlimit="10" x1="716.459" y1="364.125" x2="843.541" y2="428.125"/>
		<g>
			<g>
				<circle fill="#FFFFFF" stroke="#636363" stroke-width="0.5" stroke-miterlimit="10" cx="819.166" cy="346.914" r="8.667"/>
				
					<line fill="none" stroke="#636363" stroke-width="0.5" stroke-miterlimit="10" x1="813.037" y1="353.042" x2="825.105" y2="340.975"/>
				
					<line fill="none" stroke="#636363" stroke-width="0.5" stroke-miterlimit="10" x1="813.037" y1="340.785" x2="825.295" y2="353.042"/>
			</g>
			<g>
				<circle fill="#FFFFFF" stroke="#636363" stroke-width="0.5" stroke-miterlimit="10" cx="740.833" cy="346.914" r="8.667"/>
				
					<line fill="none" stroke="#636363" stroke-width="0.5" stroke-miterlimit="10" x1="734.705" y1="353.042" x2="746.771" y2="340.975"/>
				
					<line fill="none" stroke="#636363" stroke-width="0.5" stroke-miterlimit="10" x1="734.705" y1="340.785" x2="746.961" y2="353.042"/>
			</g>
		</g>
	</g>
	<g>
		
			<rect x="200.399" y="499.172" fill="#FFFFFF" stroke="#636363" stroke-width="0.5" stroke-miterlimit="10" width="9.561" height="82.405"/>
		
			<linearGradient id="SVGID_1_" gradientUnits="userSpaceOnUse" x1="337.25" y1="707.0117" x2="337.25" y2="679.084" gradientTransform="matrix(-4.371139e-008 1 -1 -4.371139e-008 877.6245 203.125)">
			<stop  offset="0" style="stop-color:#EFEFEF;stop-opacity:0.9"/>
			<stop  offset="1" style="stop-color:#FFFFFF"/>
		</linearGradient>
		<polygon fill="url(#SVGID_1_)" points="198.541,581.577 198.541,540.375 198.541,499.172 170.614,482.458 170.614,540.375 
			170.614,598.292 		"/>
		
			<rect x="209.959" y="507.087" fill="#FFFFFF" stroke="#636363" stroke-width="0.5" stroke-miterlimit="10" width="4.78" height="66.577"/>
	</g>
	<g>
		
			<rect x="136.797" y="260.384" fill="#FFFFFF" stroke="#636363" stroke-width="0.5" stroke-miterlimit="10" width="82.405" height="9.561"/>
		
			<linearGradient id="SVGID_2_" gradientUnits="userSpaceOnUse" x1="322.5742" y1="444.3018" x2="322.5742" y2="416.375" gradientTransform="matrix(1 0 0 1 -144.5737 -144.5723)">
			<stop  offset="0" style="stop-color:#EFEFEF;stop-opacity:0.9"/>
			<stop  offset="1" style="stop-color:#FFFFFF"/>
		</linearGradient>
		<polygon fill="url(#SVGID_2_)" points="219.203,271.803 178,271.803 136.797,271.803 120.083,299.729 178,299.729 
			235.917,299.729 		"/>
		
			<rect x="144.712" y="255.604" fill="#FFFFFF" stroke="#636363" stroke-width="0.5" stroke-miterlimit="10" width="66.577" height="4.78"/>
	</g>
	<g>
		
			<rect x="143.758" y="321.002" fill="#FFFFFF" stroke="#636363" stroke-width="0.5" stroke-miterlimit="10" width="68.484" height="34.489"/>
		
			<line fill="none" stroke="#636363" stroke-width="0.5" stroke-miterlimit="10" x1="212.242" y1="321.002" x2="143.758" y2="355.491"/>
		
			<line fill="none" stroke="#636363" stroke-width="0.5" stroke-miterlimit="10" x1="143.758" y1="321.002" x2="212.242" y2="355.491"/>
	</g>
	<g>
		
			<rect x="541.01" y="206.093" fill="#FFFFFF" stroke="#636363" stroke-width="0.5" stroke-miterlimit="10" width="34.489" height="68.484"/>
		
			<line fill="none" stroke="#636363" stroke-width="0.5" stroke-miterlimit="10" x1="575.499" y1="274.578" x2="541.01" y2="206.093"/>
		
			<line fill="none" stroke="#636363" stroke-width="0.5" stroke-miterlimit="10" x1="575.499" y1="206.093" x2="541.01" y2="274.578"/>
	</g>
	<g>
		<g>
			
				<rect x="386.459" y="780.108" fill="#FFFFFF" stroke="#636363" stroke-width="0.5" stroke-miterlimit="10" width="127.082" height="64"/>
			
				<line fill="none" stroke="#636363" stroke-width="0.5" stroke-miterlimit="10" x1="513.541" y1="780.108" x2="386.459" y2="844.108"/>
			
				<line fill="none" stroke="#636363" stroke-width="0.5" stroke-miterlimit="10" x1="386.459" y1="780.108" x2="513.541" y2="844.108"/>
			<g>
				<g>
					<circle fill="#FFFFFF" stroke="#636363" stroke-width="0.5" stroke-miterlimit="10" cx="489.166" cy="762.897" r="8.667"/>
					
						<line fill="none" stroke="#636363" stroke-width="0.5" stroke-miterlimit="10" x1="483.037" y1="769.025" x2="495.105" y2="756.958"/>
					
						<line fill="none" stroke="#636363" stroke-width="0.5" stroke-miterlimit="10" x1="483.037" y1="756.769" x2="495.295" y2="769.025"/>
				</g>
				<g>
					<circle fill="#FFFFFF" stroke="#636363" stroke-width="0.5" stroke-miterlimit="10" cx="410.833" cy="762.897" r="8.667"/>
					
						<line fill="none" stroke="#636363" stroke-width="0.5" stroke-miterlimit="10" x1="404.705" y1="769.025" x2="416.771" y2="756.958"/>
					
						<line fill="none" stroke="#636363" stroke-width="0.5" stroke-miterlimit="10" x1="404.705" y1="756.769" x2="416.961" y2="769.025"/>
				</g>
			</g>
		</g>
		<g>
			
				<rect x="251.543" y="780.108" fill="#FFFFFF" stroke="#636363" stroke-width="0.5" stroke-miterlimit="10" width="127.082" height="64"/>
			
				<line fill="none" stroke="#636363" stroke-width="0.5" stroke-miterlimit="10" x1="378.625" y1="780.108" x2="251.543" y2="844.108"/>
			
				<line fill="none" stroke="#636363" stroke-width="0.5" stroke-miterlimit="10" x1="251.543" y1="780.108" x2="378.625" y2="844.108"/>
			<g>
				<g>
					<circle fill="#FFFFFF" stroke="#636363" stroke-width="0.5" stroke-miterlimit="10" cx="354.25" cy="762.897" r="8.667"/>
					
						<line fill="none" stroke="#636363" stroke-width="0.5" stroke-miterlimit="10" x1="348.121" y1="769.025" x2="360.189" y2="756.958"/>
					
						<line fill="none" stroke="#636363" stroke-width="0.5" stroke-miterlimit="10" x1="348.121" y1="756.769" x2="360.379" y2="769.025"/>
				</g>
				<g>
					<circle fill="#FFFFFF" stroke="#636363" stroke-width="0.5" stroke-miterlimit="10" cx="275.917" cy="762.897" r="8.667"/>
					
						<line fill="none" stroke="#636363" stroke-width="0.5" stroke-miterlimit="10" x1="269.789" y1="769.025" x2="281.855" y2="756.958"/>
					
						<line fill="none" stroke="#636363" stroke-width="0.5" stroke-miterlimit="10" x1="269.789" y1="756.769" x2="282.045" y2="769.025"/>
				</g>
			</g>
		</g>
		<g>
			
				<rect x="521.375" y="780.108" fill="#FFFFFF" stroke="#636363" stroke-width="0.5" stroke-miterlimit="10" width="127.082" height="64"/>
			
				<line fill="none" stroke="#636363" stroke-width="0.5" stroke-miterlimit="10" x1="648.457" y1="780.108" x2="521.375" y2="844.108"/>
			
				<line fill="none" stroke="#636363" stroke-width="0.5" stroke-miterlimit="10" x1="521.375" y1="780.108" x2="648.457" y2="844.108"/>
			<g>
				<g>
					<circle fill="#FFFFFF" stroke="#636363" stroke-width="0.5" stroke-miterlimit="10" cx="624.082" cy="762.897" r="8.667"/>
					
						<line fill="none" stroke="#636363" stroke-width="0.5" stroke-miterlimit="10" x1="617.953" y1="769.025" x2="630.021" y2="756.958"/>
					
						<line fill="none" stroke="#636363" stroke-width="0.5" stroke-miterlimit="10" x1="617.953" y1="756.769" x2="630.211" y2="769.025"/>
				</g>
				<g>
					<circle fill="#FFFFFF" stroke="#636363" stroke-width="0.5" stroke-miterlimit="10" cx="545.749" cy="762.897" r="8.667"/>
					
						<line fill="none" stroke="#636363" stroke-width="0.5" stroke-miterlimit="10" x1="539.621" y1="769.025" x2="551.688" y2="756.958"/>
					
						<line fill="none" stroke="#636363" stroke-width="0.5" stroke-miterlimit="10" x1="539.621" y1="756.769" x2="551.877" y2="769.025"/>
				</g>
			</g>
		</g>
	</g>
	<g>
		<g>
			
				<rect x="56.232" y="53.211" transform="matrix(-0.7071 -0.7071 0.7071 -0.7071 72.9056 168.7195)" fill="#FFFFFF" stroke="#636363" stroke-width="0.5" stroke-miterlimit="10" width="30.328" height="32.098"/>
			<line fill="none" stroke="#636363" stroke-width="0.5" stroke-miterlimit="10" x1="87.456" y1="62.625" x2="64.76" y2="85.321"/>
			<polygon fill="#FFFFFF" stroke="#636363" stroke-width="0.5" stroke-miterlimit="10" points="49.325,69.886 45.259,73.952 
				60.694,89.387 67.942,88.503 			"/>
			<polygon fill="#FFFFFF" stroke="#636363" stroke-width="0.5" stroke-miterlimit="10" points="72.021,47.189 76.087,43.124 
				91.522,58.559 90.638,65.807 			"/>
		</g>
		
			<rect x="40.12" y="54.604" transform="matrix(-0.7071 0.7071 -0.7071 -0.7071 141.0337 55.3984)" fill="#FFFFFF" stroke="#636363" stroke-width="0.5" stroke-miterlimit="10" width="37.847" height="4.609"/>
	</g>
	<g>
		<g>
			
				<rect x="814.012" y="52.196" transform="matrix(0.7071 -0.7071 0.7071 0.7071 194.6041 606.3045)" fill="#FFFFFF" stroke="#636363" stroke-width="0.5" stroke-miterlimit="10" width="30.328" height="32.098"/>
			
				<line fill="none" stroke="#636363" stroke-width="0.5" stroke-miterlimit="10" x1="835.812" y1="84.305" x2="813.115" y2="61.608"/>
			<polygon fill="#FFFFFF" stroke="#636363" stroke-width="0.5" stroke-miterlimit="10" points="828.551,46.173 824.484,42.107 
				809.05,57.542 809.933,64.791 			"/>
			<polygon fill="#FFFFFF" stroke="#636363" stroke-width="0.5" stroke-miterlimit="10" points="851.247,68.87 855.313,72.936 
				839.878,88.371 832.63,87.486 			"/>
		</g>
		
			<rect x="822.604" y="53.587" transform="matrix(-0.7071 -0.7071 0.7071 -0.7071 1397.0623 690.4579)" fill="#FFFFFF" stroke="#636363" stroke-width="0.5" stroke-miterlimit="10" width="37.848" height="4.61"/>
	</g>
	<g>
		<g>
			
				<rect x="406" y="452.772" fill="#FFFFFF" stroke="#636363" stroke-width="0.5" stroke-miterlimit="10" width="37.333" height="58.999"/>
			<g>
				
					<line fill="none" stroke="#636363" stroke-width="0.5" stroke-miterlimit="10" x1="406" y1="457.876" x2="443.333" y2="457.876"/>
				<line fill="none" stroke="#636363" stroke-width="0.5" stroke-miterlimit="10" x1="406" y1="463.31" x2="443.333" y2="463.31"/>
				
					<line fill="none" stroke="#636363" stroke-width="0.5" stroke-miterlimit="10" x1="406" y1="468.743" x2="443.333" y2="468.743"/>
				
					<line fill="none" stroke="#636363" stroke-width="0.5" stroke-miterlimit="10" x1="406" y1="474.177" x2="443.333" y2="474.177"/>
				<line fill="none" stroke="#636363" stroke-width="0.5" stroke-miterlimit="10" x1="406" y1="479.61" x2="443.333" y2="479.61"/>
				
					<line fill="none" stroke="#636363" stroke-width="0.5" stroke-miterlimit="10" x1="406" y1="485.044" x2="443.333" y2="485.044"/>
				
					<line fill="none" stroke="#636363" stroke-width="0.5" stroke-miterlimit="10" x1="406" y1="490.478" x2="443.333" y2="490.478"/>
				
					<line fill="none" stroke="#636363" stroke-width="0.5" stroke-miterlimit="10" x1="406" y1="495.911" x2="443.333" y2="495.911"/>
				
					<line fill="none" stroke="#636363" stroke-width="0.5" stroke-miterlimit="10" x1="406" y1="501.345" x2="443.333" y2="501.345"/>
				
					<line fill="none" stroke="#636363" stroke-width="0.5" stroke-miterlimit="10" x1="406" y1="506.778" x2="443.333" y2="506.778"/>
			</g>
		</g>
		<g>
			
				<rect x="456.666" y="452.772" fill="#FFFFFF" stroke="#636363" stroke-width="0.5" stroke-miterlimit="10" width="37.334" height="58.999"/>
			<g>
				
					<line fill="none" stroke="#636363" stroke-width="0.5" stroke-miterlimit="10" x1="456.666" y1="457.876" x2="494" y2="457.876"/>
				<line fill="none" stroke="#636363" stroke-width="0.5" stroke-miterlimit="10" x1="456.666" y1="463.31" x2="494" y2="463.31"/>
				
					<line fill="none" stroke="#636363" stroke-width="0.5" stroke-miterlimit="10" x1="456.666" y1="468.743" x2="494" y2="468.743"/>
				
					<line fill="none" stroke="#636363" stroke-width="0.5" stroke-miterlimit="10" x1="456.666" y1="474.177" x2="494" y2="474.177"/>
				<line fill="none" stroke="#636363" stroke-width="0.5" stroke-miterlimit="10" x1="456.666" y1="479.61" x2="494" y2="479.61"/>
				
					<line fill="none" stroke="#636363" stroke-width="0.5" stroke-miterlimit="10" x1="456.666" y1="485.044" x2="494" y2="485.044"/>
				
					<line fill="none" stroke="#636363" stroke-width="0.5" stroke-miterlimit="10" x1="456.666" y1="490.478" x2="494" y2="490.478"/>
				
					<line fill="none" stroke="#636363" stroke-width="0.5" stroke-miterlimit="10" x1="456.666" y1="495.911" x2="494" y2="495.911"/>
				
					<line fill="none" stroke="#636363" stroke-width="0.5" stroke-miterlimit="10" x1="456.666" y1="501.345" x2="494" y2="501.345"/>
				
					<line fill="none" stroke="#636363" stroke-width="0.5" stroke-miterlimit="10" x1="456.666" y1="506.778" x2="494" y2="506.778"/>
			</g>
		</g>
	</g>
</g>
</svg>
