<?xml version="1.0" encoding="utf-8"?>
<!-- Generator: Adobe Illustrator 16.0.0, SVG Export Plug-In . SVG Version: 6.00 Build 0)  -->
<!DOCTYPE svg PUBLIC "-//W3C//DTD SVG 1.1//EN" "http://www.w3.org/Graphics/SVG/1.1/DTD/svg11.dtd">
<svg version="1.1" id="Layer_1" xmlns="http://www.w3.org/2000/svg" xmlns:xlink="http://www.w3.org/1999/xlink" x="0px" y="0px"
	 width="200px" height="30.042px" viewBox="0 0 200 30.042" enable-background="new 0 0 200 30.042" xml:space="preserve">
<g>
	<g>
		<g>
			<path fill="#FFFFFF" d="M132.378,30.042l-1.198-0.898c-1.756-1.314-10.51-8.139-10.51-13.382c0-4.063,3.306-7.368,7.368-7.368
				c1.57,0,3.09,0.51,4.338,1.418c1.247-0.909,2.767-1.418,4.342-1.418c4.062,0,7.366,3.305,7.366,7.368
				c0,5.244-8.752,12.068-10.506,13.382L132.378,30.042z M128.038,12.395c-1.856,0-3.366,1.51-3.366,3.367
				c0,2.138,4.24,6.433,7.705,9.243c3.466-2.813,7.706-7.11,7.706-9.243c0-1.857-1.51-3.367-3.365-3.367
				c-1.073,0-2.09,0.518-2.721,1.387l-1.614,2.223l-1.619-2.219C130.117,12.901,129.124,12.395,128.038,12.395z"/>
		</g>
	</g>
	<g>
		<g>
			<path fill="#FFFFFF" d="M5.888,25.1h10.685v4.36H0.389V2.002h16.183l-0.903,4.361H5.888v6.718h9.781v4.36H5.888V25.1z"/>
		</g>
		<g>
			<path fill="#FFFFFF" d="M27.452,24.865c0.209,0.264,0.465,0.451,0.768,0.57c0.3,0.118,0.641,0.184,1.021,0.196
				c0.378,0.013,0.778-0.007,1.197-0.06v4.045c-0.366,0.08-0.688,0.139-0.962,0.178c-0.275,0.039-0.518,0.072-0.728,0.098
				c-0.235,0.025-0.431,0.025-0.588,0c-0.995,0-1.886-0.037-2.67-0.115c-0.787-0.08-1.455-0.336-2.005-0.768
				s-0.968-1.086-1.256-1.964c-0.289-0.877-0.433-2.127-0.433-3.751V0h5.304v23.804C27.125,24.25,27.243,24.604,27.452,24.865z"/>
		</g>
		<g>
			<path fill="#FFFFFF" d="M40.808,8.759c0.995,0,1.879,0.164,2.65,0.492c0.774,0.327,1.421,0.674,1.945,1.041
				c0.603,0.471,1.125,0.981,1.572,1.531V0h5.263v29.46h-4.085l-1.021-2.71c-0.392,0.576-0.891,1.099-1.493,1.571
				c-0.524,0.393-1.184,0.752-1.984,1.08c-0.799,0.328-1.747,0.49-2.847,0.49c-1.545,0-2.854-0.281-3.928-0.844
				c-1.075-0.563-1.945-1.316-2.612-2.258c-0.668-0.943-1.153-2.05-1.455-3.32c-0.3-1.27-0.451-2.612-0.451-4.026
				c0-1.415,0.15-2.763,0.451-4.045c0.302-1.283,0.787-2.417,1.455-3.398c0.667-0.981,1.537-1.768,2.612-2.357
				C37.954,9.055,39.263,8.759,40.808,8.759z M42.458,25.768c1.256,0,2.324-0.511,3.202-1.532c0.875-1.021,1.316-2.618,1.316-4.792
				c0-2.146-0.44-3.783-1.316-4.91c-0.878-1.125-1.945-1.689-3.202-1.689c-0.628,0-1.218,0.145-1.768,0.433
				c-0.55,0.287-1.027,0.706-1.433,1.256c-0.407,0.55-0.734,1.237-0.983,2.061c-0.248,0.825-0.373,1.776-0.373,2.849
				c0,1.075,0.125,2.011,0.373,2.809c0.25,0.799,0.577,1.461,0.983,1.983c0.406,0.524,0.883,0.91,1.433,1.158
				C41.24,25.644,41.83,25.768,42.458,25.768z"/>
		</g>
		<g>
			<path fill="#FFFFFF" d="M67.44,29.892c-2.174,0-3.967-0.287-5.382-0.863c-1.413-0.576-2.546-1.348-3.398-2.316
				c-0.85-0.969-1.446-2.09-1.787-3.36c-0.34-1.269-0.51-2.612-0.51-4.026c0-1.256,0.17-2.512,0.51-3.771
				c0.341-1.256,0.884-2.389,1.63-3.398c0.747-1.006,1.722-1.827,2.927-2.455c1.204-0.628,2.671-0.942,4.4-0.942
				c1.832,0,3.358,0.314,4.576,0.942c1.218,0.628,2.193,1.449,2.927,2.455c0.732,1.009,1.25,2.142,1.55,3.398
				c0.3,1.259,0.452,2.515,0.452,3.771v1.768H61.43c0,1.415,0.503,2.58,1.512,3.498c1.008,0.916,2.39,1.374,4.145,1.374
				c0.995,0,1.911-0.104,2.75-0.315c0.837-0.209,1.558-0.443,2.16-0.706c0.682-0.288,1.31-0.628,1.887-1.021v4.399
				c0,0.025-0.172,0.117-0.512,0.273c-0.341,0.158-0.8,0.336-1.375,0.531c-0.577,0.197-1.256,0.375-2.042,0.531
				C69.169,29.814,68.33,29.892,67.44,29.892z M70.347,17.363c0-0.445-0.06-0.937-0.178-1.474c-0.118-0.537-0.34-1.041-0.668-1.512
				c-0.327-0.471-0.785-0.864-1.375-1.178c-0.588-0.314-1.355-0.471-2.297-0.471c-0.812,0-1.5,0.156-2.063,0.471
				c-0.563,0.314-1.015,0.707-1.355,1.178c-0.34,0.472-0.588,0.975-0.746,1.512c-0.157,0.537-0.235,1.028-0.235,1.474H70.347z"/>
		</g>
		<g>
			<path fill="#FFFFFF" d="M91.912,14.299c-0.602-0.131-1.146-0.203-1.631-0.217c-0.483-0.013-0.937-0.004-1.354,0.021
				c-0.839,0.053-1.526,0.235-2.063,0.55c-0.537,0.313-0.95,0.728-1.237,1.237c-0.288,0.51-0.485,1.087-0.588,1.728
				c-0.106,0.643-0.158,1.305-0.158,1.984v9.859h-5.304V9.427h3.888l0.827,4.401c0.129-0.603,0.294-1.121,0.491-1.553
				c0.196-0.431,0.478-0.89,0.844-1.374c0.366-0.484,0.831-0.91,1.396-1.277c0.563-0.366,1.243-0.628,2.042-0.785
				c0.797-0.158,1.747-0.131,2.847,0.078V14.299z"/>
		</g>
		<g>
			<path fill="#FFFFFF" d="M117.484,2.002V29.46h-5.5V17.48h-10.879v11.98h-5.46V2.002h5.46v11.117h10.879V2.002H117.484z"/>
		</g>
		<g>
			<path fill="#FFFFFF" d="M170.592,8.759c1.413,0,2.545,0.249,3.398,0.746c0.851,0.499,1.499,1.154,1.943,1.964
				c0.443,0.813,0.738,1.742,0.883,2.789c0.145,1.048,0.218,2.135,0.218,3.261v11.94h-5.267v-0.039l-0.037-12.059
				c0-0.655-0.039-1.258-0.119-1.808c-0.076-0.55-0.229-1.021-0.45-1.414c-0.223-0.392-0.53-0.7-0.923-0.922
				c-0.395-0.222-0.89-0.334-1.494-0.334c-0.785,0-1.438,0.184-1.963,0.55c-0.524,0.368-0.929,0.831-1.218,1.394
				c-0.288,0.564-0.491,1.173-0.61,1.827c-0.114,0.655-0.175,1.271-0.175,1.847V29.46h-5.187v-0.039h-0.037V17.363
				c0-0.655-0.049-1.258-0.139-1.808c-0.093-0.55-0.255-1.027-0.491-1.433c-0.234-0.406-0.563-0.72-0.982-0.943
				c-0.418-0.223-0.955-0.334-1.611-0.334c-0.731,0-1.336,0.184-1.806,0.55c-0.471,0.367-0.85,0.833-1.138,1.396
				c-0.291,0.562-0.492,1.177-0.61,1.846c-0.119,0.668-0.176,1.289-0.176,1.865V29.46h-5.266V9.23h3.968l0.866,3.104
				c0.47-0.733,0.943-1.322,1.413-1.768c0.472-0.445,1.067-0.858,1.786-1.237c0.72-0.38,1.579-0.57,2.573-0.57
				c1.311,0,2.368,0.184,3.182,0.551c0.812,0.366,1.455,0.772,1.925,1.217c0.553,0.524,0.955,1.113,1.217,1.768
				c0.055-0.079,0.199-0.301,0.436-0.668c0.233-0.367,0.6-0.766,1.1-1.198c0.495-0.431,1.137-0.818,1.925-1.159
				C168.512,8.93,169.465,8.759,170.592,8.759z"/>
		</g>
		<g>
			<path fill="#FFFFFF" d="M192.157,29.892c-2.174,0-3.971-0.287-5.383-0.863c-1.413-0.576-2.549-1.348-3.398-2.316
				c-0.851-0.969-1.447-2.09-1.787-3.36c-0.339-1.269-0.511-2.612-0.511-4.026c0-1.256,0.172-2.512,0.511-3.771
				c0.34-1.256,0.886-2.389,1.63-3.398c0.748-1.006,1.724-1.827,2.929-2.455c1.201-0.628,2.669-0.942,4.398-0.942
				c1.832,0,3.356,0.314,4.574,0.942c1.218,0.628,2.193,1.449,2.928,2.455c0.733,1.009,1.25,2.142,1.551,3.398
				c0.301,1.259,0.451,2.515,0.451,3.771v1.768h-13.902c0,1.415,0.502,2.58,1.512,3.498c1.007,0.916,2.389,1.374,4.143,1.374
				c0.995,0,1.912-0.104,2.751-0.315c0.836-0.209,1.555-0.443,2.159-0.706c0.681-0.288,1.312-0.628,1.887-1.021v4.399
				c0,0.025-0.173,0.117-0.511,0.273c-0.341,0.158-0.8,0.336-1.376,0.531c-0.575,0.197-1.256,0.375-2.042,0.531
				C193.883,29.814,193.046,29.892,192.157,29.892z M195.063,17.363c0-0.445-0.063-0.937-0.177-1.474
				c-0.118-0.537-0.342-1.041-0.668-1.512c-0.329-0.471-0.787-0.864-1.373-1.178c-0.593-0.314-1.357-0.471-2.3-0.471
				c-0.812,0-1.499,0.156-2.062,0.471c-0.566,0.314-1.017,0.707-1.355,1.178c-0.343,0.472-0.591,0.975-0.748,1.512
				c-0.156,0.537-0.233,1.028-0.233,1.474H195.063z"/>
		</g>
	</g>
</g>
</svg>
